<?xml version="1.0" encoding="UTF-8" standalone="no"?>
<!-- Created with Inkscape (http://www.inkscape.org/) -->

<svg
   xmlns:dc="http://purl.org/dc/elements/1.1/"
   xmlns:cc="http://creativecommons.org/ns#"
   xmlns:rdf="http://www.w3.org/1999/02/22-rdf-syntax-ns#"
   xmlns:svg="http://www.w3.org/2000/svg"
   xmlns="http://www.w3.org/2000/svg"
   xmlns:xlink="http://www.w3.org/1999/xlink"
   xmlns:sodipodi="http://sodipodi.sourceforge.net/DTD/sodipodi-0.dtd"
   xmlns:inkscape="http://www.inkscape.org/namespaces/inkscape"
   width="334.99997"
   height="390"
   id="svg4397"
   version="1.1"
   inkscape:version="0.48.4 r9939"
   sodipodi:docname="logo.svg">
  <defs
     id="defs4399">
    <linearGradient
       id="linearGradient5132">
      <stop
         style="stop-color:#908686;stop-opacity:1;"
         offset="0"
         id="stop5134" />
      <stop
         style="stop-color:#363636;stop-opacity:1;"
         offset="1"
         id="stop5136" />
    </linearGradient>
    <linearGradient
       inkscape:collect="always"
       xlink:href="#linearGradient5132"
       id="linearGradient5138"
       x1="372.93164"
       y1="291.21222"
       x2="377.61172"
       y2="682.64636"
       gradientUnits="userSpaceOnUse" />
  </defs>
  <sodipodi:namedview
     id="base"
     pagecolor="#ffffff"
     bordercolor="#666666"
     borderopacity="1.0"
     inkscape:pageopacity="0.0"
     inkscape:pageshadow="2"
     inkscape:zoom="0.7"
     inkscape:cx="33.90877"
     inkscape:cy="-39.412193"
     inkscape:document-units="px"
     inkscape:current-layer="layer1"
     showgrid="false"
     inkscape:window-width="1565"
     inkscape:window-height="1171"
     inkscape:window-x="33"
     inkscape:window-y="0"
     inkscape:window-maximized="1"
     fit-margin-top="0"
     fit-margin-left="0"
     fit-margin-right="0"
     fit-margin-bottom="0" />
  <metadata
     id="metadata4402">
    <rdf:RDF>
      <cc:Work
         rdf:about="">
        <dc:format>image/svg+xml</dc:format>
        <dc:type
           rdf:resource="http://purl.org/dc/dcmitype/StillImage" />
        <dc:title></dc:title>
      </cc:Work>
    </rdf:RDF>
  </metadata>
  <g
     inkscape:label="Layer 1"
     inkscape:groupmode="layer"
     id="layer1"
     transform="translate(-206.78573,-291.64789)">
    <path
       inkscape:connector-curvature="0"
       style="fill:#eb592f;fill-opacity:1"
       d="m 206.78573,510.82799 c 0,94.3427 74.991,170.8199 167.49997,170.8199 92.509,0 167.5,-76.4772 167.5,-170.8199 0,-16.5119 -2.2988,-32.4769 -6.585,-47.5801 l 6.585,1e-4 0,-171.6001 -120.425,55.2 c -14.933,-4.4509 -30.7315,-6.8403 -47.075,-6.8403 -92.50897,0 -167.49997,76.478 -167.49997,170.8204 z"
       id="path4298" />
    <path
       d="m 261.08926,512.36188 c 0,-63.7566 50.6789,-115.4397 113.1962,-115.4397 62.5177,0 113.1967,51.6831 113.1967,115.4397 0,63.7571 -50.679,115.4403 -113.1967,115.4403 -62.5173,0 -113.1962,-51.6832 -113.1962,-115.4403 z"
       id="Ellipse-2"
       inkscape:connector-curvature="0"
       style="fill:#ffffff" />
    <path
       d="m 280.97516,512.48639 c 0,-51.6942 41.7761,-93.6002 93.3105,-93.6002 51.5349,0 93.31061,41.906 93.31061,93.6002 0,51.6948 -41.77571,93.5999 -93.31061,93.5999 -51.5344,0 -93.3105,-41.9051 -93.3105,-93.5999 z"
       id="Ellipse"
       inkscape:connector-curvature="0"
       style="fill:#4c4c4c" />
    <path
       id="path4374"
       d="m 341.00672,485.43879 66.558,-30.6325 -0.7814,87.3599 -65.77661,0 0,-56.7274 z"
       inkscape:connector-curvature="0"
       style="fill:#ffffff" />
    <path
       inkscape:connector-curvature="0"
       style="opacity:0.38403045;fill:url(#linearGradient5138);fill-opacity:1"
       d="m 206.78573,510.82799 c 0,94.3427 74.991,170.8199 167.49997,170.8199 92.509,0 167.5,-76.4772 167.5,-170.8199 0,-16.5119 -2.2988,-32.4769 -6.585,-47.5801 l 6.585,1e-4 0,-171.6001 -120.425,55.2 c -14.933,-4.4509 -30.7315,-6.8403 -47.075,-6.8403 -92.50897,0 -167.49997,76.478 -167.49997,170.8204 z"
       id="path4298-1" />
  </g>
</svg>
